# xmcd
# 
# Track frame offsets:
#     150
#     20338
#     34390
#     74382
# 
# Disc length: 1200
# 
# Revision: 0
# Processed by: cddbd v1.5.2PL0 Copyright (c) Steve Scherf et al.
# Submitted via: fre:ac v1.0.17
# 
DISCID=3004ae04
DTITLE=Coldplay - Talk
DYEAR=2005
DGENRE=
TTITLE0=Talk (Radio Edit)
TTITLE1=Sleeping Sun
TTITLE2=Gravity
TTITLE3=Data track
EXTD=
EXTT0=
EXTT1=
EXTT2=
EXTT3=
PLAYORDER=
